<svg width="188" height="90" viewBox="0 0 188 90" fill="none" xmlns="http://www.w3.org/2000/svg">
<path d="M95.1984 35.4433C101.748 35.4433 107.057 30.134 107.057 23.5846C107.057 17.0353 101.748 11.726 95.1984 11.726C88.649 11.726 83.3398 17.0353 83.3398 23.5846C83.3398 30.134 88.649 35.4433 95.1984 35.4433Z" fill="#80BB00"/>
<path d="M146.553 35.9703C153.102 35.9703 158.411 30.661 158.411 24.1117C158.411 17.5624 153.102 12.2531 146.553 12.2531C140.003 12.2531 134.694 17.5624 134.694 24.1117C134.694 30.661 140.003 35.9703 146.553 35.9703Z" fill="#EC5937"/>
<path d="M6.25872 36.7609H0L13.7362 4.44615H19.3032L32.9406 36.7609H26.5501L23.5855 29.4151H9.12455L6.25872 36.7609ZM10.9033 24.6717H21.8396L16.4374 10.8037L10.9033 24.6717Z" fill="#4E3000"/>
<path d="M41.7357 36.7609H36.2676V14.6907H50.9921V18.973H41.7357V36.7609Z" fill="#4E3000"/>
<path d="M61.6648 47.6972H56.1967V14.6577H61.4342V17.853H61.566C62.3566 16.7001 63.4436 15.7777 64.7612 15.086C66.1118 14.3942 67.5941 14.0648 69.2082 14.0648C70.8882 14.0648 72.4035 14.3613 73.7211 14.9871C75.0717 15.613 76.1916 16.4365 77.1469 17.4906C78.1022 18.5447 78.8269 19.7635 79.3539 21.18C79.881 22.5964 80.1445 24.0788 80.1445 25.6599C80.1445 27.2411 79.881 28.7563 79.3869 30.1398C78.8928 31.5563 78.1681 32.808 77.2128 33.8621C76.2575 34.9162 75.1046 35.7727 73.754 36.3985C72.4035 37.0244 70.8882 37.3209 69.2082 37.3209C67.7588 37.3209 66.3424 37.0244 64.9918 36.3985C63.6413 35.7727 62.5542 34.8833 61.7636 33.7304H61.6648V47.6972ZM74.6764 25.6599C74.6764 24.7046 74.5446 23.8152 74.2481 22.9588C73.9517 22.1023 73.5564 21.3447 72.9964 20.6859C72.4364 20.0271 71.7776 19.5 70.9541 19.1377C70.1306 18.7424 69.1753 18.5777 68.0882 18.5777C67.1 18.5777 66.1777 18.7753 65.3542 19.1377C64.5307 19.533 63.8389 20.0271 63.246 20.6859C62.653 21.3447 62.1919 22.1023 61.8954 22.9588C61.566 23.8152 61.4013 24.7376 61.4013 25.6599C61.4013 26.6481 61.566 27.5375 61.8954 28.4269C62.2248 29.2834 62.653 30.041 63.246 30.6998C63.8389 31.3257 64.5307 31.8527 65.3542 32.2151C66.1777 32.6104 67.1 32.7751 68.0882 32.7751C69.1753 32.7751 70.1306 32.5774 70.9541 32.2151C71.7776 31.8198 72.4693 31.3257 72.9964 30.6669C73.5564 30.0081 73.9517 29.2504 74.2481 28.394C74.5446 27.5046 74.6764 26.6152 74.6764 25.6599Z" fill="#4E3000"/>
<path d="M115.918 36.7609H110.45V14.6907H115.918V23.1894H125.636V14.6577H131.104V36.7279H125.636V27.4387H115.918V36.7609Z" fill="#4E3000"/>
<path d="M166.548 14.6577L174.915 24.6717L183.117 14.6907H187.893V36.7609H182.425V22.3329L175.508 31.3586H174.223L167.239 22.4647V36.7609H161.771V14.6907H166.548V14.6577Z" fill="#4E3000"/>
<path d="M29.7454 78.2661C28.4607 79.9131 26.8137 81.2637 24.7384 82.3178C22.6961 83.3719 20.2585 83.9318 17.4256 83.9318C14.955 83.9318 12.6821 83.5036 10.5739 82.6801C8.46573 81.8566 6.654 80.6707 5.13873 79.1555C3.62346 77.6402 2.4376 75.8614 1.5482 73.7532C0.691749 71.645 0.263521 69.3721 0.263521 66.8686C0.263521 64.3322 0.691749 62.0263 1.58115 59.9511C2.47054 57.8758 3.6564 56.097 5.20461 54.5818C6.75282 53.0994 8.56456 51.9465 10.6728 51.123C12.781 50.2995 15.0539 49.9042 17.4585 49.9042C19.7973 49.9042 22.0373 50.3324 24.1784 51.1889C26.3195 52.0453 28.0325 53.2641 29.2513 54.8123L25.1337 58.6005C24.4419 57.5794 23.4208 56.7229 22.0702 56.0641C20.7196 55.4053 19.2373 55.0429 17.5903 55.0429C15.8774 55.0429 14.3621 55.3723 12.9786 55.9653C11.5951 56.5911 10.4422 57.4476 9.45395 58.5017C8.46573 59.5558 7.74104 60.8075 7.18105 62.2569C6.654 63.6734 6.39048 65.2216 6.39048 66.8686C6.39048 68.5486 6.654 70.0968 7.18105 71.5462C7.7081 72.9956 8.46573 74.2473 9.42101 75.3014C10.3763 76.3555 11.5292 77.212 12.9127 77.8049C14.2962 78.4308 15.8115 78.7272 17.5244 78.7272C19.2044 78.7272 20.7196 78.3978 22.1361 77.7061C23.5196 77.0143 24.6725 76.0261 25.5619 74.7744L29.7454 78.2661Z" fill="#4E3000"/>
<path d="M48.1921 68.8451C48.1921 67.3957 47.7639 66.3086 46.8745 65.6169C45.9851 64.9251 44.8322 64.5628 43.3499 64.5628C42.1969 64.5628 41.077 64.7934 40.0558 65.2545C39.0017 65.7157 38.1123 66.2757 37.3876 67.0004L34.5547 63.871C35.6747 62.8169 37.0582 61.9605 38.6723 61.3346C40.2864 60.7087 42.0322 60.4123 43.844 60.4123C46.7427 60.4123 48.9827 61.104 50.5968 62.4546C52.2109 63.8381 53.1003 65.9792 53.232 68.878C53.265 69.3062 53.2979 69.7344 53.2979 70.1627C53.2979 70.5909 53.3309 71.0191 53.3309 71.4803V78.4637C53.3309 79.2543 53.3309 80.0449 53.3638 80.8684C53.3967 81.659 53.4297 82.4166 53.4956 83.1413H48.4886C48.4556 82.6801 48.4227 82.2189 48.3898 81.7248C48.3568 81.2307 48.3568 80.7366 48.3568 80.2096H48.258C47.4674 81.3625 46.4792 82.2189 45.2933 82.8119C44.1075 83.4048 42.7569 83.6683 41.1758 83.6683C40.3193 83.6683 39.4299 83.5366 38.5076 83.306C37.5852 83.0754 36.7288 82.6801 35.9712 82.1531C35.2135 81.626 34.5876 80.9343 34.0935 80.0449C33.5994 79.1884 33.3359 78.1014 33.3359 76.8167C33.3359 75.1696 33.7641 73.852 34.6206 72.8967C35.477 71.9085 36.63 71.1838 38.0464 70.6568C39.4629 70.1297 41.044 69.8003 42.8228 69.6686C44.6016 69.5039 46.3804 69.438 48.1592 69.438V68.8451H48.1921ZM47.3686 72.7979C46.3475 72.7979 45.2934 72.8309 44.2393 72.9297C43.1852 73.0285 42.2628 73.1932 41.4064 73.4567C40.5828 73.7203 39.8911 74.0826 39.364 74.6097C38.837 75.1038 38.5735 75.7626 38.5735 76.5861C38.5735 77.212 38.7052 77.7061 38.9358 78.1014C39.1664 78.4967 39.4958 78.8261 39.8581 79.0566C40.2534 79.2872 40.6817 79.4849 41.1428 79.5837C41.6369 79.6825 42.0981 79.7484 42.5922 79.7484C44.404 79.7484 45.8204 79.1884 46.7757 78.0684C47.7639 76.9484 48.2251 75.5979 48.2251 73.9508V72.7979H47.3686Z" fill="#4E3000"/>
<path d="M62.3566 89.4H57.6461V78.6943H61.2037L68.2859 61.0052H74.4787L81.0339 78.6943H84.8221V89.4H80.1116V83.0754H62.3236V89.4H62.3566ZM71.3494 66.3416L66.8694 78.6943H75.5987L71.6458 67.198L71.3494 66.3416Z" fill="#4E3000"/>
<path d="M101.615 0L93.8092 7.51795L96.597 10.4127L104.403 2.89471L101.615 0Z" fill="#4E3000"/>
<path d="M151.453 0.0112555L143.645 7.52703L146.432 10.4221L154.24 2.90637L151.453 0.0112555Z" fill="#4E3000"/>
</svg>
